<?xml version="1.0" encoding="iso-8859-1"?>
<!-- Generator: Adobe Illustrator 19.0.0, SVG Export Plug-In . SVG Version: 6.00 Build 0)  -->
<svg version="1.1" id="Capa_1" xmlns="http://www.w3.org/2000/svg" xmlns:xlink="http://www.w3.org/1999/xlink" x="0px" y="0px"
	 viewBox="0 0 512 512" style="enable-background:new 0 0 512 512;" xml:space="preserve">
<polygon style="fill:#F54100;" points="196,30 256,512 458,512 458,30 "/>
<rect x="54" y="30" style="fill:#FE5F1A;" width="202" height="482"/>
<polygon style="fill:#D5F6F5;" points="204.911,60 256,482 428,482 428,60 "/>
<rect x="84" y="60" style="fill:#FFFFFF;" width="172" height="422"/>
<polygon style="fill:#B9B9B9;" points="256,0 226,60 256,120 352,120 352,0 "/>
<rect x="160" style="fill:#EEEEEE;" width="96" height="120"/>
<polygon style="fill:#272727;" points="394.6,198.4 256,198.4 236,183.4 256,168.4 394.6,168.4 "/>
<g>
	<rect x="177.4" y="168.4" style="fill:#4D4D4D;" width="78.6" height="30"/>
	<rect x="117.4" y="168.4" style="fill:#4D4D4D;" width="30" height="30"/>
</g>
<polygon style="fill:#272727;" points="394.6,433.6 256,433.6 236,418.6 256,403.6 394.6,403.6 "/>
<g>
	<rect x="177.4" y="403.6" style="fill:#4D4D4D;" width="78.6" height="30"/>
	<rect x="117.4" y="403.6" style="fill:#4D4D4D;" width="30" height="30"/>
</g>
<polygon style="fill:#272727;" points="394.6,355.2 256,355.2 236,340.2 256,325.2 394.6,325.2 "/>
<g>
	<rect x="177.4" y="325.2" style="fill:#4D4D4D;" width="78.6" height="30"/>
	<rect x="117.4" y="325.2" style="fill:#4D4D4D;" width="30" height="30"/>
</g>
<polygon style="fill:#272727;" points="394.6,276.8 256,276.8 236,261.8 256,246.8 394.6,246.8 "/>
<g>
	<rect x="177.4" y="246.8" style="fill:#4D4D4D;" width="78.6" height="30"/>
	<rect x="117.4" y="246.8" style="fill:#4D4D4D;" width="30" height="30"/>
</g>
<g>
</g>
<g>
</g>
<g>
</g>
<g>
</g>
<g>
</g>
<g>
</g>
<g>
</g>
<g>
</g>
<g>
</g>
<g>
</g>
<g>
</g>
<g>
</g>
<g>
</g>
<g>
</g>
<g>
</g>
</svg>
